<svg xmlns="http://www.w3.org/2000/svg" viewBox="0 0 512 512">
<defs>
  <linearGradient id="g" x1="0" y1="0" x2="1" y2="1">
    <stop offset="0" stop-color="#e08b6d"/>
    <stop offset="1" stop-color="#d06a47"/>
  </linearGradient>
</defs>
<!-- camada de trás (termina antes do canto dobrado) -->
<path d="M40 240V152c0-22.1 17.9-40 40-40h118c12.6 0 24.4 5.9 32 16l21 28h169v100H40z" fill="#b25837"/>
<!-- claquete: listras na aba -->
<path d="M104 114h28l-18 40h-28z" fill="#f7efe4" opacity=".85"/>
<path d="M152 114h28l-18 40h-28z" fill="#f7efe4" opacity=".85"/>
<path d="M200 114h22l-14 30-22 2z" fill="#f7efe4" opacity=".85"/>
<!-- frente com canto dobrado -->
<path d="M76 176h312l84 84v112c0 19.9-16.1 36-36 36H76c-19.9 0-36-16.1-36-36V212c0-19.9 16.1-36 36-36z" fill="url(#g)"/>
<path d="M388 176l84 84h-48c-19.9 0-36-16.1-36-36z" fill="#a64f2f"/>
<!-- play -->
<path d="M212 252l88 50-88 50z" fill="#f7efe4"/>
</svg>